<?xml version="1.0" standalone="no"?>
<!DOCTYPE svg PUBLIC "-//W3C//DTD SVG 20010904//EN"
 "http://www.w3.org/TR/2001/REC-SVG-20010904/DTD/svg10.dtd">
<svg version="1.0" xmlns="http://www.w3.org/2000/svg"
 width="140.000000pt" height="128.000000pt" viewBox="0 0 140.000000 128.000000"
 preserveAspectRatio="xMidYMid meet">

<g transform="translate(0.000000,128.000000) scale(0.100000,-0.100000)"
fill="#000000" stroke="none">
<path d="M580 1134 c-152 -40 -289 -151 -353 -285 -50 -105 -60 -150 -60 -264
1 -117 22 -196 80 -294 42 -70 146 -166 224 -206 101 -52 267 -71 384 -45 78
17 165 60 165 80 0 19 19 30 50 30 28 0 113 100 157 187 47 90 63 155 63 256
0 254 -194 496 -438 546 -73 15 -206 13 -272 -5z m194 -96 c18 -12 24 -9 29
15 3 17 4 15 5 -8 0 -16 -3 -39 -8 -50 -8 -19 -9 -19 -9 1 -1 31 -30 39 -41
11 -11 -27 -12 -11 -3 34 3 19 9 27 11 19 3 -8 10 -18 16 -22z m-124 -18 c0
-11 -7 -20 -15 -20 -8 0 -15 9 -15 20 0 11 7 20 15 20 8 0 15 -9 15 -20z m250
17 c0 -9 -39 -81 -40 -73 0 18 24 76 32 76 4 0 8 -1 8 -3z m-397 -34 c-20 -7
-15 -31 5 -28 9 1 11 0 5 -2 -7 -3 -13 -8 -13 -13 0 -16 21 -22 35 -10 10 8
15 9 15 2 0 -10 -39 -28 -44 -20 -38 58 -39 61 -21 75 10 7 21 10 24 7 3 -4 0
-9 -6 -11z m507 -36 c0 -7 -12 -23 -27 -37 -25 -24 -26 -24 -19 -3 9 27 -9 39
-23 16 -6 -10 -11 -14 -11 -10 0 5 9 22 21 38 17 24 24 27 40 19 10 -6 19 -16
19 -23z m-574 -59 c18 -20 20 -25 6 -13 l-23 19 7 -28 c6 -26 5 -28 -17 -21
-20 6 -22 5 -11 -6 26 -28 10 -31 -18 -4 -37 35 -38 48 -4 34 34 -12 40 -6 26
26 -16 34 -1 31 34 -7z m668 -27 c-4 -3 -9 0 -11 7 -5 13 -33 17 -33 4 0 -4 5
-13 12 -20 9 -9 9 -12 1 -12 -7 0 -15 5 -18 10 -4 6 -11 8 -16 4 -6 -4 -6 -11
2 -20 6 -8 9 -17 6 -20 -3 -3 -11 5 -18 17 -10 20 -8 25 17 45 26 22 30 22 46
7 10 -9 15 -19 12 -22z m-831 -171 c-7 -25 12 -26 27 -2 9 15 10 14 5 -5 -5
-17 -2 -23 9 -23 9 0 16 7 16 15 0 8 5 15 10 15 7 0 7 -6 0 -20 -11 -21 -21
-23 -57 -14 -22 6 -31 33 -16 47 10 11 11 8 6 -13z m518 5 c92 -48 92 -202 0
-250 -64 -32 -145 -11 -181 48 -24 39 -26 107 -5 148 32 62 121 87 186 54z
m399 7 c0 -4 -12 -15 -27 -24 -29 -18 -30 -16 23 -33 24 -8 8 -22 -30 -27 -19
-2 -32 0 -30 4 3 4 15 8 27 9 21 0 21 1 -3 12 -36 16 -36 16 -14 32 18 14 18
14 -6 16 -20 1 -18 3 10 9 19 4 38 8 43 9 4 0 7 -2 7 -7z m-873 -133 c-22 -13
-22 -26 1 -32 9 -3 -2 -5 -25 -6 -40 -1 -43 1 -43 25 0 22 4 26 24 22 14 -3
30 -1 38 3 7 4 15 6 18 3 2 -3 -3 -10 -13 -15z m867 -25 c10 -4 15 -17 15 -33
-2 -23 -2 -24 -6 -3 -5 27 -12 28 -29 5 -12 -16 -12 -16 -7 5 4 16 1 22 -10
22 -9 0 -18 -10 -20 -22 -4 -20 -4 -19 -6 5 -1 22 3 27 23 27 13 0 31 -3 40
-6z m-839 -83 c-6 -5 -28 -12 -50 -16 l-40 -6 30 15 c34 16 74 21 60 7z m818
-36 c1 -5 -6 -11 -15 -13 -11 -2 -18 3 -18 13 0 17 30 18 33 0z m-805 -38
c-21 -17 -5 -49 20 -40 25 9 12 -2 -25 -21 -19 -9 -33 -12 -33 -6 0 5 7 10 15
10 8 0 15 4 15 9 0 16 -27 31 -46 26 -11 -4 -3 3 16 14 39 22 64 28 38 8z
m782 -60 c0 -5 -7 -4 -16 4 -13 10 -17 10 -25 -2 -12 -19 -11 -29 1 -29 6 0
10 -4 10 -10 0 -11 -69 32 -70 44 0 5 7 3 15 -4 19 -16 53 6 35 24 -22 22 -8
25 20 4 17 -12 30 -26 30 -31z m-716 -52 c3 -9 -1 -18 -10 -22 -19 -7 -28 2
-21 22 8 19 23 19 31 0z m626 -57 c0 -15 -18 0 -41 35 l-22 32 31 -29 c18 -17
32 -34 32 -38z m-536 17 c17 -13 17 -15 -10 -44 -26 -27 -31 -29 -48 -16 -11
8 -15 15 -9 15 7 0 15 -5 19 -11 4 -8 9 -7 15 2 4 8 1 18 -9 26 -10 7 -12 12
-5 13 6 0 15 -5 19 -11 4 -8 9 -8 17 0 8 8 5 15 -9 26 -10 8 -14 14 -9 14 6 0
18 -6 29 -14z m452 -36 c13 -26 14 -33 2 -40 -23 -15 -36 -10 -52 21 -14 30
-14 30 10 24 19 -5 23 -3 18 10 -11 28 5 17 22 -15z m-355 -23 c18 17 19 16
19 -17 l1 -34 15 30 c8 17 12 22 9 12 -3 -11 -8 -30 -11 -43 -9 -36 -24 -29
-24 12 0 29 -3 34 -13 25 -8 -6 -17 -8 -21 -4 -4 4 -4 0 -1 -9 4 -9 1 -19 -5
-23 -18 -11 -20 -1 -7 41 10 32 13 35 15 16 3 -23 4 -23 23 -6z m235 -13 c3
-16 7 -34 10 -40 2 -7 -1 -13 -5 -13 -5 0 -18 -3 -28 -6 -17 -5 -17 -5 0 6 24
15 21 30 -5 31 l-23 2 22 4 c13 3 20 10 17 18 -3 7 -15 11 -27 9 -21 -4 -21
-4 -2 5 31 15 34 13 41 -16z"/>
<path d="M967 976 c-7 -19 11 -32 24 -19 6 6 5 14 -4 22 -12 9 -16 8 -20 -3z"/>
<path d="M709 618 l24 -9 -29 -32 -29 -32 37 34 36 33 4 -28 c3 -27 4 -27 9 7
l5 36 -41 0 c-35 0 -37 -1 -16 -9z"/>
<path d="M260 575 c0 -8 7 -15 15 -15 8 0 15 7 15 15 0 8 -7 15 -15 15 -8 0
-15 -7 -15 -15z"/>
<path d="M937 203 c-12 -11 -8 -23 8 -23 8 0 15 7 15 15 0 16 -12 20 -23 8z"/>
<path d="M0 652 c0 -42 7 -70 26 -107 15 -28 32 -53 39 -57 7 -4 23 -34 36
-65 12 -32 34 -74 48 -93 45 -62 134 -160 160 -177 17 -10 8 3 -23 38 -90 100
-156 265 -156 390 0 40 -4 50 -22 60 -13 7 -25 15 -28 18 -3 4 -22 17 -42 29
l-38 21 0 -57z"/>
</g>
</svg>
